<mxfile host="app.diagrams.net" agent="Mozilla/5.0 (Windows NT 10.0; Win64; x64) AppleWebKit/537.36 (KHTML, like Gecko) Chrome/135.0.0.0 Safari/537.36 Edg/135.0.0.0" version="26.2.14">
  <diagram name="PÃ¡gina-1" id="uZQImiLDqvY5Ogg9PkUE">
    <mxGraphModel dx="1464" dy="832" grid="1" gridSize="10" guides="1" tooltips="1" connect="1" arrows="1" fold="1" page="1" pageScale="1" pageWidth="827" pageHeight="1169" math="0" shadow="0">
      <root>
        <mxCell id="0" />
        <mxCell id="1" parent="0" />
        <mxCell id="m03-V5paGQHoa6VUm2qM-88" value="Legenda" style="swimlane;whiteSpace=wrap;html=1;rounded=1;fillStyle=solid;strokeColor=default;align=center;verticalAlign=middle;fontFamily=Helvetica;fontSize=12;fontColor=default;fillColor=light-dark(#E6E6E6,#EDEDED);noLabel=0;container=1;dropTarget=1;collapsible=1;expand=1;" vertex="1" parent="1">
          <mxGeometry x="30" y="20" width="310" height="320" as="geometry">
            <mxRectangle x="30" y="20" width="90" height="30" as="alternateBounds" />
          </mxGeometry>
        </mxCell>
        <mxCell id="m03-V5paGQHoa6VUm2qM-89" value="&lt;b&gt;Tabela&lt;/b&gt;" style="swimlane;fontStyle=0;childLayout=stackLayout;horizontal=1;startSize=30;horizontalStack=0;resizeParent=1;resizeParentMax=0;resizeLast=0;collapsible=1;marginBottom=0;whiteSpace=wrap;html=1;rounded=1;fillStyle=solid;strokeColor=#666666;align=center;verticalAlign=middle;fontFamily=Helvetica;fontSize=12;fontColor=#333333;fillColor=#f5f5f5;" vertex="1" parent="m03-V5paGQHoa6VUm2qM-88">
          <mxGeometry x="10" y="40" width="80" height="60" as="geometry" />
        </mxCell>
        <mxCell id="m03-V5paGQHoa6VUm2qM-90" value="Status" style="text;align=center;verticalAlign=middle;spacingLeft=4;spacingRight=4;overflow=hidden;points=[[0,0.5],[1,0.5]];portConstraint=eastwest;rotatable=0;whiteSpace=wrap;html=1;fontFamily=Helvetica;fontSize=12;fillColor=none;" vertex="1" parent="m03-V5paGQHoa6VUm2qM-89">
          <mxGeometry y="30" width="80" height="30" as="geometry" />
        </mxCell>
        <mxCell id="m03-V5paGQHoa6VUm2qM-93" value="" style="shape=flexArrow;endArrow=classic;html=1;rounded=0;fontFamily=Helvetica;fontSize=12;fontColor=default;fillColor=#000000;fillStyle=solid;" edge="1" parent="m03-V5paGQHoa6VUm2qM-88">
          <mxGeometry width="50" height="50" relative="1" as="geometry">
            <mxPoint x="110" y="70" as="sourcePoint" />
            <mxPoint x="180" y="70" as="targetPoint" />
          </mxGeometry>
        </mxCell>
        <mxCell id="m03-V5paGQHoa6VUm2qM-94" value="LandingZone" style="text;strokeColor=none;fillColor=none;html=1;fontSize=12;fontStyle=1;verticalAlign=middle;align=center;fontFamily=Helvetica;fontColor=default;" vertex="1" parent="m03-V5paGQHoa6VUm2qM-88">
          <mxGeometry x="191" y="50" width="100" height="40" as="geometry" />
        </mxCell>
        <mxCell id="m03-V5paGQHoa6VUm2qM-97" value="&lt;b&gt;Tabela&lt;/b&gt;" style="swimlane;fontStyle=0;childLayout=stackLayout;horizontal=1;startSize=30;horizontalStack=0;resizeParent=1;resizeParentMax=0;resizeLast=0;collapsible=1;marginBottom=0;whiteSpace=wrap;html=1;rounded=1;fillStyle=hatch;strokeColor=#b46504;align=center;verticalAlign=middle;fontFamily=Helvetica;fontSize=12;fillColor=default;gradientColor=#CD7F32;" vertex="1" parent="m03-V5paGQHoa6VUm2qM-88">
          <mxGeometry x="10" y="110" width="80" height="60" as="geometry" />
        </mxCell>
        <mxCell id="m03-V5paGQHoa6VUm2qM-98" value="Status" style="text;strokeColor=none;fillColor=none;align=center;verticalAlign=middle;spacingLeft=4;spacingRight=4;overflow=hidden;points=[[0,0.5],[1,0.5]];portConstraint=eastwest;rotatable=0;whiteSpace=wrap;html=1;fontFamily=Helvetica;fontSize=12;fontColor=default;" vertex="1" parent="m03-V5paGQHoa6VUm2qM-97">
          <mxGeometry y="30" width="80" height="30" as="geometry" />
        </mxCell>
        <mxCell id="m03-V5paGQHoa6VUm2qM-99" value="" style="shape=flexArrow;endArrow=classic;html=1;rounded=0;fontFamily=Helvetica;fontSize=12;fontColor=default;fillColor=#000000;" edge="1" parent="m03-V5paGQHoa6VUm2qM-88">
          <mxGeometry width="50" height="50" relative="1" as="geometry">
            <mxPoint x="110" y="140" as="sourcePoint" />
            <mxPoint x="180" y="140" as="targetPoint" />
          </mxGeometry>
        </mxCell>
        <mxCell id="m03-V5paGQHoa6VUm2qM-100" value="BronzeZone" style="text;strokeColor=none;fillColor=none;html=1;fontSize=12;fontStyle=1;verticalAlign=middle;align=center;fontFamily=Helvetica;fontColor=default;" vertex="1" parent="m03-V5paGQHoa6VUm2qM-88">
          <mxGeometry x="191" y="120" width="100" height="40" as="geometry" />
        </mxCell>
        <mxCell id="m03-V5paGQHoa6VUm2qM-101" value="&lt;b&gt;Tabela&lt;/b&gt;" style="swimlane;fontStyle=0;childLayout=stackLayout;horizontal=1;startSize=30;horizontalStack=0;resizeParent=1;resizeParentMax=0;resizeLast=0;collapsible=1;marginBottom=0;whiteSpace=wrap;html=1;rounded=1;fillStyle=solid;strokeColor=#666666;align=center;verticalAlign=middle;fontFamily=Helvetica;fontSize=12;fillColor=#f5f5f5;gradientColor=#b3b3b3;" vertex="1" parent="m03-V5paGQHoa6VUm2qM-88">
          <mxGeometry x="10" y="180" width="80" height="60" as="geometry" />
        </mxCell>
        <mxCell id="m03-V5paGQHoa6VUm2qM-102" value="Status" style="text;strokeColor=none;fillColor=none;align=center;verticalAlign=middle;spacingLeft=4;spacingRight=4;overflow=hidden;points=[[0,0.5],[1,0.5]];portConstraint=eastwest;rotatable=0;whiteSpace=wrap;html=1;fontFamily=Helvetica;fontSize=12;fontColor=default;" vertex="1" parent="m03-V5paGQHoa6VUm2qM-101">
          <mxGeometry y="30" width="80" height="30" as="geometry" />
        </mxCell>
        <mxCell id="m03-V5paGQHoa6VUm2qM-103" value="" style="shape=flexArrow;endArrow=classic;html=1;rounded=0;fontFamily=Helvetica;fontSize=12;fontColor=default;strokeColor=#000000;fillColor=#000000;" edge="1" parent="m03-V5paGQHoa6VUm2qM-88">
          <mxGeometry width="50" height="50" relative="1" as="geometry">
            <mxPoint x="110" y="210" as="sourcePoint" />
            <mxPoint x="180" y="210" as="targetPoint" />
          </mxGeometry>
        </mxCell>
        <mxCell id="m03-V5paGQHoa6VUm2qM-104" value="SilverZone" style="text;strokeColor=none;fillColor=none;html=1;fontSize=12;fontStyle=1;verticalAlign=middle;align=center;fontFamily=Helvetica;fontColor=default;" vertex="1" parent="m03-V5paGQHoa6VUm2qM-88">
          <mxGeometry x="191" y="190" width="100" height="40" as="geometry" />
        </mxCell>
        <mxCell id="m03-V5paGQHoa6VUm2qM-105" value="&lt;b&gt;Tabela&lt;/b&gt;" style="swimlane;fontStyle=0;childLayout=stackLayout;horizontal=1;startSize=30;horizontalStack=0;resizeParent=1;resizeParentMax=0;resizeLast=0;collapsible=1;marginBottom=0;whiteSpace=wrap;html=1;rounded=1;fillStyle=hatch;strokeColor=#d6b656;align=center;verticalAlign=middle;fontFamily=Helvetica;fontSize=12;fillColor=#fff2cc;gradientColor=#ffd966;" vertex="1" parent="m03-V5paGQHoa6VUm2qM-88">
          <mxGeometry x="10" y="250" width="80" height="60" as="geometry" />
        </mxCell>
        <mxCell id="m03-V5paGQHoa6VUm2qM-106" value="Status" style="text;strokeColor=none;fillColor=none;align=center;verticalAlign=middle;spacingLeft=4;spacingRight=4;overflow=hidden;points=[[0,0.5],[1,0.5]];portConstraint=eastwest;rotatable=0;whiteSpace=wrap;html=1;fontFamily=Helvetica;fontSize=12;fontColor=default;" vertex="1" parent="m03-V5paGQHoa6VUm2qM-105">
          <mxGeometry y="30" width="80" height="30" as="geometry" />
        </mxCell>
        <mxCell id="m03-V5paGQHoa6VUm2qM-107" value="" style="shape=flexArrow;endArrow=classic;html=1;rounded=0;fontFamily=Helvetica;fontSize=12;fontColor=default;fillColor=#000000;" edge="1" parent="m03-V5paGQHoa6VUm2qM-88">
          <mxGeometry width="50" height="50" relative="1" as="geometry">
            <mxPoint x="110" y="280" as="sourcePoint" />
            <mxPoint x="180" y="280" as="targetPoint" />
          </mxGeometry>
        </mxCell>
        <mxCell id="m03-V5paGQHoa6VUm2qM-108" value="GoldZone" style="text;strokeColor=none;fillColor=none;html=1;fontSize=12;fontStyle=1;verticalAlign=middle;align=center;fontFamily=Helvetica;fontColor=default;" vertex="1" parent="m03-V5paGQHoa6VUm2qM-88">
          <mxGeometry x="191" y="260" width="100" height="40" as="geometry" />
        </mxCell>
        <mxCell id="m03-V5paGQHoa6VUm2qM-111" value="Tabelas" style="swimlane;whiteSpace=wrap;html=1;rounded=1;fillStyle=solid;strokeColor=default;align=center;verticalAlign=middle;fontFamily=Helvetica;fontSize=12;fontColor=default;fillColor=light-dark(#E6E6E6,#EDEDED);noLabel=0;container=1;dropTarget=1;collapsible=1;expand=1;" vertex="1" parent="1">
          <mxGeometry x="30" y="360" width="1170" height="520" as="geometry">
            <mxRectangle x="30" y="20" width="90" height="30" as="alternateBounds" />
          </mxGeometry>
        </mxCell>
        <mxCell id="m03-V5paGQHoa6VUm2qM-151" style="edgeStyle=elbowEdgeStyle;rounded=1;orthogonalLoop=1;jettySize=auto;html=1;entryX=0;entryY=0.5;entryDx=0;entryDy=0;fontFamily=Helvetica;fontSize=12;fontColor=default;curved=0;" edge="1" parent="m03-V5paGQHoa6VUm2qM-111" source="m03-V5paGQHoa6VUm2qM-132" target="m03-V5paGQHoa6VUm2qM-144">
          <mxGeometry relative="1" as="geometry" />
        </mxCell>
        <mxCell id="m03-V5paGQHoa6VUm2qM-132" value="&lt;b&gt;VW_CADSEG_CPT&lt;/b&gt;" style="swimlane;fontStyle=0;childLayout=stackLayout;horizontal=1;startSize=30;horizontalStack=0;resizeParent=1;resizeParentMax=0;resizeLast=0;collapsible=1;marginBottom=0;whiteSpace=wrap;html=1;rounded=1;fillStyle=solid;strokeColor=#666666;align=center;verticalAlign=middle;fontFamily=Helvetica;fontSize=12;fontColor=#333333;fillColor=#f5f5f5;" vertex="1" parent="m03-V5paGQHoa6VUm2qM-111">
          <mxGeometry x="20" y="40" width="150" height="50" as="geometry" />
        </mxCell>
        <mxCell id="m03-V5paGQHoa6VUm2qM-135" value="" style="shape=waypoint;sketch=0;fillStyle=solid;size=6;pointerEvents=1;points=[];fillColor=none;resizable=0;rotatable=0;perimeter=centerPerimeter;snapToPoint=1;rounded=1;strokeColor=light-dark(#17a627, #ededed);align=center;verticalAlign=middle;fontFamily=Helvetica;fontSize=12;fontColor=default;strokeWidth=6;" vertex="1" parent="m03-V5paGQHoa6VUm2qM-132">
          <mxGeometry y="30" width="150" height="20" as="geometry" />
        </mxCell>
        <mxCell id="m03-V5paGQHoa6VUm2qM-154" style="edgeStyle=elbowEdgeStyle;rounded=1;orthogonalLoop=1;jettySize=auto;html=1;entryX=0;entryY=0.5;entryDx=0;entryDy=0;fontFamily=Helvetica;fontSize=12;fontColor=default;curved=0;" edge="1" parent="m03-V5paGQHoa6VUm2qM-111" source="m03-V5paGQHoa6VUm2qM-140" target="m03-V5paGQHoa6VUm2qM-149">
          <mxGeometry relative="1" as="geometry" />
        </mxCell>
        <mxCell id="m03-V5paGQHoa6VUm2qM-140" value="&lt;b&gt;SAS_CADSEG&lt;/b&gt;" style="swimlane;fontStyle=0;childLayout=stackLayout;horizontal=1;startSize=30;horizontalStack=0;resizeParent=1;resizeParentMax=0;resizeLast=0;collapsible=1;marginBottom=0;whiteSpace=wrap;html=1;rounded=1;fillStyle=solid;strokeColor=#666666;align=center;verticalAlign=middle;fontFamily=Helvetica;fontSize=12;fontColor=#333333;fillColor=#f5f5f5;" vertex="1" parent="m03-V5paGQHoa6VUm2qM-111">
          <mxGeometry x="20" y="220" width="150" height="50" as="geometry" />
        </mxCell>
        <mxCell id="m03-V5paGQHoa6VUm2qM-141" value="" style="shape=waypoint;sketch=0;fillStyle=solid;size=6;pointerEvents=1;points=[];fillColor=none;resizable=0;rotatable=0;perimeter=centerPerimeter;snapToPoint=1;rounded=1;strokeColor=light-dark(#17a627, #ededed);align=center;verticalAlign=middle;fontFamily=Helvetica;fontSize=12;fontColor=default;strokeWidth=6;" vertex="1" parent="m03-V5paGQHoa6VUm2qM-140">
          <mxGeometry y="30" width="150" height="20" as="geometry" />
        </mxCell>
        <mxCell id="m03-V5paGQHoa6VUm2qM-155" style="edgeStyle=elbowEdgeStyle;rounded=1;orthogonalLoop=1;jettySize=auto;html=1;entryX=0;entryY=0.5;entryDx=0;entryDy=0;fontFamily=Helvetica;fontSize=12;fontColor=default;curved=0;" edge="1" parent="m03-V5paGQHoa6VUm2qM-111" source="m03-V5paGQHoa6VUm2qM-142" target="m03-V5paGQHoa6VUm2qM-149">
          <mxGeometry relative="1" as="geometry" />
        </mxCell>
        <mxCell id="m03-V5paGQHoa6VUm2qM-142" value="&lt;b&gt;SAS_STATUS&lt;/b&gt;" style="swimlane;fontStyle=0;childLayout=stackLayout;horizontal=1;startSize=30;horizontalStack=0;resizeParent=1;resizeParentMax=0;resizeLast=0;collapsible=1;marginBottom=0;whiteSpace=wrap;html=1;rounded=1;fillStyle=solid;strokeColor=#666666;align=center;verticalAlign=middle;fontFamily=Helvetica;fontSize=12;fontColor=#333333;fillColor=#f5f5f5;" vertex="1" parent="m03-V5paGQHoa6VUm2qM-111">
          <mxGeometry x="20" y="280" width="150" height="50" as="geometry" />
        </mxCell>
        <mxCell id="m03-V5paGQHoa6VUm2qM-143" value="" style="shape=waypoint;sketch=0;fillStyle=solid;size=6;pointerEvents=1;points=[];fillColor=none;resizable=0;rotatable=0;perimeter=centerPerimeter;snapToPoint=1;rounded=1;strokeColor=light-dark(#17a627, #ededed);align=center;verticalAlign=middle;fontFamily=Helvetica;fontSize=12;fontColor=default;strokeWidth=6;" vertex="1" parent="m03-V5paGQHoa6VUm2qM-142">
          <mxGeometry y="30" width="150" height="20" as="geometry" />
        </mxCell>
        <mxCell id="m03-V5paGQHoa6VUm2qM-144" value="&lt;b&gt;BENEFICIARIO_CPT&lt;/b&gt;" style="swimlane;fontStyle=0;childLayout=stackLayout;horizontal=1;startSize=30;horizontalStack=0;resizeParent=1;resizeParentMax=0;resizeLast=0;collapsible=1;marginBottom=0;whiteSpace=wrap;html=1;rounded=1;fillStyle=solid;strokeColor=#666666;align=center;verticalAlign=middle;fontFamily=Helvetica;fontSize=12;fillColor=#f5f5f5;gradientColor=#b3b3b3;" vertex="1" parent="m03-V5paGQHoa6VUm2qM-111">
          <mxGeometry x="640" y="100" width="140" height="50" as="geometry" />
        </mxCell>
        <mxCell id="m03-V5paGQHoa6VUm2qM-146" value="" style="shape=waypoint;sketch=0;fillStyle=solid;size=6;pointerEvents=1;points=[];fillColor=none;resizable=0;rotatable=0;perimeter=centerPerimeter;snapToPoint=1;rounded=1;strokeColor=light-dark(#17a627, #ededed);align=center;verticalAlign=middle;fontFamily=Helvetica;fontSize=12;fontColor=default;strokeWidth=6;" vertex="1" parent="m03-V5paGQHoa6VUm2qM-144">
          <mxGeometry y="30" width="140" height="20" as="geometry" />
        </mxCell>
        <mxCell id="m03-V5paGQHoa6VUm2qM-147" value="&lt;b&gt;BENEFICIARIO_CPT&lt;/b&gt;" style="swimlane;fontStyle=0;childLayout=stackLayout;horizontal=1;startSize=30;horizontalStack=0;resizeParent=1;resizeParentMax=0;resizeLast=0;collapsible=1;marginBottom=0;whiteSpace=wrap;html=1;rounded=1;fillStyle=solid;strokeColor=#666666;align=center;verticalAlign=middle;fontFamily=Helvetica;fontSize=12;fillColor=#f5f5f5;gradientColor=#b3b3b3;" vertex="1" parent="m03-V5paGQHoa6VUm2qM-111">
          <mxGeometry x="640" y="250" width="140" height="50" as="geometry" />
        </mxCell>
        <mxCell id="m03-V5paGQHoa6VUm2qM-148" value="" style="shape=waypoint;sketch=0;fillStyle=solid;size=6;pointerEvents=1;points=[];fillColor=none;resizable=0;rotatable=0;perimeter=centerPerimeter;snapToPoint=1;rounded=1;strokeColor=light-dark(#17a627, #ededed);align=center;verticalAlign=middle;fontFamily=Helvetica;fontSize=12;fontColor=default;strokeWidth=6;" vertex="1" parent="m03-V5paGQHoa6VUm2qM-147">
          <mxGeometry y="30" width="140" height="20" as="geometry" />
        </mxCell>
        <mxCell id="m03-V5paGQHoa6VUm2qM-156" style="edgeStyle=elbowEdgeStyle;rounded=1;orthogonalLoop=1;jettySize=auto;html=1;entryX=0;entryY=0.5;entryDx=0;entryDy=0;fontFamily=Helvetica;fontSize=12;fontColor=default;curved=0;" edge="1" parent="m03-V5paGQHoa6VUm2qM-111" source="m03-V5paGQHoa6VUm2qM-149" target="m03-V5paGQHoa6VUm2qM-147">
          <mxGeometry relative="1" as="geometry" />
        </mxCell>
        <mxCell id="m03-V5paGQHoa6VUm2qM-149" value="&lt;b&gt;DWC_0030_W010_BENEFICIARIO&lt;/b&gt;" style="swimlane;fontStyle=0;childLayout=stackLayout;horizontal=1;startSize=30;horizontalStack=0;resizeParent=1;resizeParentMax=0;resizeLast=0;collapsible=1;marginBottom=0;whiteSpace=wrap;html=1;rounded=1;fillStyle=hatch;strokeColor=#b46504;align=center;verticalAlign=middle;fontFamily=Helvetica;fontSize=12;fillColor=default;gradientColor=#CD7F32;" vertex="1" parent="m03-V5paGQHoa6VUm2qM-111">
          <mxGeometry x="274" y="250" width="220" height="50" as="geometry" />
        </mxCell>
        <mxCell id="m03-V5paGQHoa6VUm2qM-157" value="" style="shape=waypoint;sketch=0;fillStyle=solid;size=6;pointerEvents=1;points=[];fillColor=none;resizable=0;rotatable=0;perimeter=centerPerimeter;snapToPoint=1;rounded=1;strokeColor=light-dark(#17a627, #ededed);align=center;verticalAlign=middle;fontFamily=Helvetica;fontSize=12;fontColor=default;strokeWidth=6;" vertex="1" parent="m03-V5paGQHoa6VUm2qM-149">
          <mxGeometry y="30" width="220" height="20" as="geometry" />
        </mxCell>
        <mxCell id="m03-V5paGQHoa6VUm2qM-152" style="edgeStyle=elbowEdgeStyle;rounded=1;orthogonalLoop=1;jettySize=auto;html=1;fontFamily=Helvetica;fontSize=12;fontColor=default;curved=0;" edge="1" parent="1" source="m03-V5paGQHoa6VUm2qM-136">
          <mxGeometry relative="1" as="geometry">
            <mxPoint x="670" y="485" as="targetPoint" />
          </mxGeometry>
        </mxCell>
        <mxCell id="m03-V5paGQHoa6VUm2qM-136" value="&lt;b&gt;CIDTABLE&lt;/b&gt;" style="swimlane;fontStyle=0;childLayout=stackLayout;horizontal=1;startSize=30;horizontalStack=0;resizeParent=1;resizeParentMax=0;resizeLast=0;collapsible=1;marginBottom=0;whiteSpace=wrap;html=1;rounded=1;fillStyle=solid;strokeColor=#666666;align=center;verticalAlign=middle;fontFamily=Helvetica;fontSize=12;fontColor=#333333;fillColor=#f5f5f5;" vertex="1" parent="1">
          <mxGeometry x="50" y="460" width="150" height="50" as="geometry" />
        </mxCell>
        <mxCell id="m03-V5paGQHoa6VUm2qM-137" value="" style="shape=waypoint;sketch=0;fillStyle=solid;size=6;pointerEvents=1;points=[];fillColor=none;resizable=0;rotatable=0;perimeter=centerPerimeter;snapToPoint=1;rounded=1;strokeColor=light-dark(#17a627, #ededed);align=center;verticalAlign=middle;fontFamily=Helvetica;fontSize=12;fontColor=default;strokeWidth=6;" vertex="1" parent="m03-V5paGQHoa6VUm2qM-136">
          <mxGeometry y="30" width="150" height="20" as="geometry" />
        </mxCell>
        <mxCell id="m03-V5paGQHoa6VUm2qM-153" style="edgeStyle=elbowEdgeStyle;rounded=1;orthogonalLoop=1;jettySize=auto;html=1;entryX=0;entryY=0.5;entryDx=0;entryDy=0;fontFamily=Helvetica;fontSize=12;fontColor=default;curved=0;" edge="1" parent="1" source="m03-V5paGQHoa6VUm2qM-138" target="m03-V5paGQHoa6VUm2qM-144">
          <mxGeometry relative="1" as="geometry" />
        </mxCell>
        <mxCell id="m03-V5paGQHoa6VUm2qM-138" value="&lt;b&gt;CATTABLE&lt;/b&gt;" style="swimlane;fontStyle=0;childLayout=stackLayout;horizontal=1;startSize=30;horizontalStack=0;resizeParent=1;resizeParentMax=0;resizeLast=0;collapsible=1;marginBottom=0;whiteSpace=wrap;html=1;rounded=1;fillStyle=solid;strokeColor=#666666;align=center;verticalAlign=middle;fontFamily=Helvetica;fontSize=12;fontColor=#333333;fillColor=#f5f5f5;" vertex="1" parent="1">
          <mxGeometry x="50" y="520" width="150" height="50" as="geometry" />
        </mxCell>
        <mxCell id="m03-V5paGQHoa6VUm2qM-139" value="" style="shape=waypoint;sketch=0;fillStyle=solid;size=6;pointerEvents=1;points=[];fillColor=none;resizable=0;rotatable=0;perimeter=centerPerimeter;snapToPoint=1;rounded=1;strokeColor=light-dark(#17a627, #ededed);align=center;verticalAlign=middle;fontFamily=Helvetica;fontSize=12;fontColor=default;strokeWidth=6;" vertex="1" parent="m03-V5paGQHoa6VUm2qM-138">
          <mxGeometry y="30" width="150" height="20" as="geometry" />
        </mxCell>
      </root>
    </mxGraphModel>
  </diagram>
</mxfile>
